<?xml version="1.0" standalone="no"?>
<!DOCTYPE svg PUBLIC "-//W3C//DTD SVG 20010904//EN"
 "http://www.w3.org/TR/2001/REC-SVG-20010904/DTD/svg10.dtd">
<svg version="1.0" xmlns="http://www.w3.org/2000/svg"
 width="260.000000pt" height="260.000000pt" viewBox="0 0 260.000000 260.000000"
 preserveAspectRatio="xMidYMid meet">
<metadata>
Created by potrace 1.11, written by Peter Selinger 2001-2013
</metadata>
<g transform="translate(0.000000,260.000000) scale(0.100000,-0.100000)"
fill="#000000" stroke="none">
<path d="M0 2543 c0 -54 2 -58 45 -97 25 -23 45 -45 45 -48 0 -4 -19 -8 -42
-10 l-43 -3 0 -65 0 -65 113 -3 c61 -1 112 -6 112 -10 0 -4 -25 -40 -56 -81
-69 -92 -127 -207 -154 -303 -18 -66 -20 -102 -20 -415 l0 -343 60 -114 c32
-63 80 -145 105 -183 25 -37 48 -78 51 -90 7 -28 -26 -72 -135 -176 l-81 -77
0 -86 0 -86 72 63 c40 35 102 92 138 127 35 34 69 62 76 62 6 0 18 -15 25 -33
31 -77 124 -219 168 -259 88 -79 212 -130 352 -145 33 -3 62 -10 66 -16 3 -5
-14 -27 -38 -48 l-44 -38 100 -1 101 0 54 55 c64 65 88 74 282 105 73 12 162
30 198 41 36 11 94 20 130 22 l65 2 54 -112 55 -113 68 0 c37 0 68 4 68 9 0 5
-25 62 -55 127 -31 65 -55 127 -53 138 3 21 28 32 208 98 99 37 164 90 182
149 6 22 14 39 18 39 10 0 43 -39 100 -119 29 -41 86 -114 129 -164 l76 -90 3
96 3 95 -81 109 c-44 59 -93 124 -109 143 -89 111 -103 157 -85 276 49 326 56
400 50 527 l-5 129 22 -15 c142 -93 196 -127 201 -127 3 0 6 33 6 74 l0 73
-71 47 c-110 74 -158 122 -171 173 -6 25 -21 57 -34 72 -12 15 -32 55 -44 90
-35 104 -118 260 -166 311 l-45 48 58 7 c110 13 249 45 358 82 l110 38 3 68
c2 37 -1 67 -5 67 -5 0 -67 -20 -139 -44 -162 -55 -295 -80 -385 -71 -57 5
-67 3 -83 -14 -14 -15 -17 -30 -13 -56 7 -41 2 -43 -95 -21 -35 8 -98 18 -140
21 -43 4 -78 9 -78 10 0 1 44 47 97 101 l97 99 -89 3 -88 3 -46 -44 c-76 -72
-163 -135 -206 -146 -57 -15 -377 -15 -393 1 -8 8 -12 45 -12 100 l0 88 -70 0
-70 0 0 -99 c0 -81 -3 -100 -16 -105 -9 -3 -128 -6 -265 -6 l-250 0 -86 57
c-48 32 -110 79 -139 105 -42 39 -59 48 -88 48 l-36 0 0 -57z m1872 -311 c137
-37 159 -55 223 -182 50 -101 69 -156 90 -270 9 -47 25 -130 35 -185 35 -174
27 -341 -34 -730 -9 -55 -20 -142 -26 -193 -10 -104 -25 -135 -73 -157 -127
-58 -384 -150 -450 -161 -43 -8 -101 -20 -130 -29 -29 -8 -110 -24 -181 -35
-70 -12 -149 -28 -175 -36 -25 -8 -102 -17 -171 -20 -197 -10 -332 29 -422
123 -47 49 -120 175 -159 278 -34 88 -82 180 -139 265 -49 72 -134 242 -159
318 -29 86 -28 219 4 402 32 184 39 208 82 305 36 81 69 135 81 135 4 0 8 -53
8 -117 2 -142 39 -335 76 -389 28 -43 143 -131 180 -139 27 -6 75 12 95 37 41
49 13 108 -52 108 -80 0 -119 53 -147 197 -17 89 -19 131 -15 240 5 108 3 134
-8 143 -22 18 -19 26 24 70 l38 39 159 4 c87 2 386 3 664 1 474 -2 510 -3 582
-22z"/>
<path d="M1530 2075 c-8 -2 -37 -7 -63 -10 -88 -12 -167 -115 -167 -219 0 -85
83 -223 193 -322 62 -56 59 -74 -16 -74 -86 0 -132 -51 -93 -102 41 -54 187
-41 261 24 43 37 61 87 46 129 -6 17 -55 74 -109 128 -108 105 -160 187 -149
233 13 52 39 71 110 79 93 11 128 38 113 87 -10 31 -81 57 -126 47z"/>
<path d="M830 2034 c-57 -24 -79 -94 -40 -129 16 -14 28 -16 67 -10 65 10 174
6 190 -7 13 -11 29 -75 20 -84 -3 -3 -24 7 -47 22 -33 22 -52 27 -100 27 -109
-1 -170 -40 -170 -108 0 -25 14 -51 58 -106 127 -163 239 -249 326 -249 23 0
50 -7 60 -15 32 -24 73 -19 93 11 15 24 15 29 0 77 -9 29 -18 82 -20 119 -2
56 -7 72 -29 95 -21 24 -26 41 -32 110 -10 131 -44 205 -105 230 -36 15 -244
28 -271 17z m203 -395 c45 -39 83 -77 85 -85 6 -25 -34 -15 -76 19 -37 29
-112 117 -112 131 0 17 29 -1 103 -65z"/>
<path d="M1810 1961 c-19 -10 -48 -39 -64 -65 -57 -91 -30 -200 74 -301 57
-55 74 -82 84 -134 8 -44 -8 -63 -82 -92 -114 -45 -149 -92 -102 -139 27 -27
45 -26 148 16 63 25 101 47 128 75 38 39 39 42 38 112 -1 112 -17 153 -87 222
-77 75 -97 103 -97 137 0 39 25 58 74 58 74 0 101 58 50 105 -34 32 -112 34
-164 6z"/>
<path d="M840 1258 c-23 -25 -23 -28 -20 -158 4 -227 56 -333 182 -372 67 -20
122 22 104 80 -4 11 -31 31 -60 45 -46 22 -56 32 -69 69 -9 24 -18 92 -22 151
-7 134 -12 160 -37 186 -24 27 -52 27 -78 -1z"/>
<path d="M442 1168 c-89 -96 -87 -309 4 -393 41 -38 83 -41 147 -12 145 66
249 271 155 306 -35 13 -67 -8 -94 -61 -49 -96 -120 -149 -138 -102 -11 29 -6
111 9 147 21 50 19 100 -3 120 -26 23 -55 21 -80 -5z"/>
<path d="M1212 1067 c-28 -30 -28 -66 2 -154 31 -90 50 -120 95 -142 42 -21
146 -41 216 -41 41 0 52 5 80 34 39 42 60 110 59 198 0 57 -4 72 -24 93 -30
32 -54 32 -85 0 -21 -21 -25 -33 -25 -88 0 -47 -5 -71 -17 -86 -17 -20 -22
-21 -72 -11 -30 5 -63 18 -73 27 -10 9 -27 47 -39 85 -31 104 -72 134 -117 85z"/>
<path d="M1875 1078 c-34 -18 -67 -52 -76 -77 -17 -44 15 -123 76 -189 30 -33
55 -62 55 -65 0 -13 -47 -31 -98 -38 -30 -4 -62 -15 -73 -25 -41 -37 -9 -97
57 -110 63 -12 236 62 277 118 29 39 18 62 -72 158 -44 47 -80 88 -81 92 0 4
12 15 28 25 57 35 67 69 30 103 -24 22 -89 27 -123 8z"/>
</g>
</svg>
